<?xml version="1.0" encoding="UTF-8" standalone="no"?>
<!-- Created with Inkscape (http://www.inkscape.org/) -->

<svg
   width="999.62054mm"
   height="912.44232mm"
   viewBox="0 0 999.62055 912.44232"
   version="1.1"
   id="svg1"
   xmlns:inkscape="http://www.inkscape.org/namespaces/inkscape"
   xmlns:sodipodi="http://sodipodi.sourceforge.net/DTD/sodipodi-0.dtd"
   xmlns:xlink="http://www.w3.org/1999/xlink"
   xmlns="http://www.w3.org/2000/svg"
   xmlns:svg="http://www.w3.org/2000/svg">
  <sodipodi:namedview
     id="namedview1"
     pagecolor="#505050"
     bordercolor="#ffffff"
     borderopacity="1"
     inkscape:showpageshadow="0"
     inkscape:pageopacity="0"
     inkscape:pagecheckerboard="1"
     inkscape:deskcolor="#505050"
     inkscape:document-units="mm">
    <inkscape:page
       x="0"
       y="0"
       width="999.62054"
       height="912.44232"
       id="page2"
       margin="0"
       bleed="0" />
  </sodipodi:namedview>
  <defs
     id="defs1">
    <linearGradient
       id="linearGradient15"
       inkscape:collect="always">
      <stop
         style="stop-color:#ae8331;stop-opacity:1;"
         offset="0"
         id="stop15" />
      <stop
         style="stop-color:#fbefae;stop-opacity:1;"
         offset="0.50048637"
         id="stop19" />
      <stop
         style="stop-color:#ae8331;stop-opacity:1;"
         offset="1"
         id="stop18" />
    </linearGradient>
    <linearGradient
       inkscape:collect="always"
       xlink:href="#linearGradient15"
       id="linearGradient16"
       x1="0"
       y1="500"
       x2="1000"
       y2="500"
       gradientUnits="userSpaceOnUse"
       gradientTransform="translate(0,-44.226428)" />
  </defs>
  <path
     d="M 494.24528,0.01479884 C 491.81596,0.65007984 427.76412,43.295603 310.2529,122.51688 263.48242,154.04764 175.20491,213.43485 114.08038,254.48867 52.955829,295.5425 2.5215459,330.18015 2.0045288,331.46123 1.4875117,332.74229 0.73673473,463.98756 0.33589681,623.11682 L 0,756.49369 v 155.94862 h 19.734196 20.126937 l 0.05064,-281.35337 0.05064,-281.35389 113.550167,-76.4005 c 62.45244,-42.02036 164.82148,-110.8691 227.4869,-152.99738 l 113.93723,-76.596874 3.98943,2.036568 c 3.84209,1.96139 94.64998,58.577786 148.15426,92.370586 l 25.90953,16.36438 0.34055,100.08226 c 0.32326,94.98396 0.22215,100.03739 -1.99265,99.19808 -1.28352,-0.48641 -34.02342,-17.54225 -72.75525,-37.90156 -76.30927,-40.11184 -91.71326,-47.87098 -95.03399,-47.87098 -1.19062,0 -29.02543,18.0123 -61.85514,40.02701 -65.6106,43.99664 -219.02141,147.28649 -233.75059,157.38161 l -9.30124,6.37429 0.3359,218.659 c 0.18465,120.26249 0.61395,219.40641 0.95446,220.31989 0.49339,1.32363 80.69157,1.65801 394.95471,1.64641 216.88448,-0.008 396.67519,-0.40103 399.53478,-0.87333 l 5.19917,-0.85887 -0.92966,-295.44656 c -0.51136,-162.49578 -1.25911,-296.30584 -1.66192,-297.35549 -1.14122,-2.97403 -58.8193,-40.23664 -207.11293,-133.80476 l -19.93057,-12.57546 -1.01183,-65.68333 c -0.55655,-36.125928 -1.30365,-66.983053 -1.66036,-68.571003 -0.35671,-1.587952 -2.19699,-4.726593 -4.08916,-6.975284 l -3.4401,-4.08864 h -38.15374 -38.15374 l -4.14342,4.318083 -4.1429,4.318599 -0.95498,37.535697 c -0.5253,20.64478 -1.09543,37.536208 -1.26659,37.536208 -0.17116,0 -27.14284,-16.936788 -59.93691,-37.636978 C 525.6996,17.141073 496.55137,-0.58825516 494.24528,0.01479884 Z M 770.6279,217.52865 c 0.67949,0 8.61375,4.73313 28.81426,17.32246 20.20043,12.58933 52.66697,33.03486 102.41029,64.45911 1.8e-4,1.2e-4 3.3e-4,-1.1e-4 5.1e-4,0 l 58.78763,37.13779 h 5.2e-4 l 0.007,269.39544 0.007,269.39544 h -5.2e-4 -360.74335 -360.74388 l 0.0703,-192.99493 0.0703,-192.99443 132.33973,-89.0235 c 72.78698,-48.96284 133.13446,-89.2145 134.10551,-89.44829 0.97105,-0.23379 31.22362,15.12464 67.22794,34.13022 36.00431,19.00555 73.2358,38.63052 82.73603,43.61077 l 17.27285,9.05475 v 128.88205 c 0,100.11045 -0.38523,130.91739 -1.72548,137.9983 -5.16075,27.26618 -18.36873,42.40159 -41.19076,47.20177 -10.09854,2.12402 -41.73045,1.83585 -55.13824,-0.5023 -6.25472,-1.09072 -19.55486,-4.08032 -29.55582,-6.64352 -10.00096,-2.5632 -19.65652,-4.66018 -21.45709,-4.66018 -8.47383,0 -12.61328,9.78821 -20.51037,48.49781 -4.73861,23.22756 -4.80068,27.19609 -0.50178,32.30501 4.0827,4.85203 9.43311,7.04416 29.50879,12.09022 28.66239,7.20428 56.94622,10.75271 85.42941,10.71821 30.96533,-0.0374 51.16257,-3.77262 71.21994,-13.17181 41.02529,-19.2251 64.23905,-52.99683 75.12565,-109.2941 2.78299,-14.39148 2.94612,-19.58201 3.86488,-122.65298 0.52766,-59.19391 1.02784,-160.09216 1.11104,-224.21887 0.0979,-75.41872 0.61272,-116.59444 1.4578,-116.59444 z"
     style="baseline-shift:baseline;display:inline;overflow:visible;vector-effect:none;fill:url(#linearGradient16);fill-rule:evenodd;enable-background:accumulate;stop-color:#000000;stop-opacity:1"
     id="path22" />
</svg>
