<?xml version="1.0" encoding="UTF-8" standalone="no"?>
<svg
   width="400"
   zoomAndPan="magnify"
   viewBox="0 0 300 299.99999"
   height="400"
   preserveAspectRatio="xMidYMid"
   version="1.0"
   id="svg59"
   sodipodi:docname="Black logo .svg (1).svg"
   inkscape:export-filename="../Pictures/jaskiel-team-logo-base"
   inkscape:export-xdpi="96"
   inkscape:export-ydpi="96"
   xmlns:inkscape="http://www.inkscape.org/namespaces/inkscape"
   xmlns:sodipodi="http://sodipodi.sourceforge.net/DTD/sodipodi-0.dtd"
   xmlns="http://www.w3.org/2000/svg"
   xmlns:svg="http://www.w3.org/2000/svg">
  <sodipodi:namedview
     id="namedview59"
     pagecolor="#505050"
     bordercolor="#ffffff"
     borderopacity="1"
     inkscape:showpageshadow="0"
     inkscape:pageopacity="0"
     inkscape:pagecheckerboard="1"
     inkscape:deskcolor="#505050"
     inkscape:zoom="1.9243453"
     inkscape:cx="113.28528"
     inkscape:cy="138.22883"
     inkscape:window-width="1712"
     inkscape:window-height="969"
     inkscape:window-x="0"
     inkscape:window-y="39"
     inkscape:window-maximized="1"
     inkscape:current-layer="svg59">
    <inkscape:page
       x="0"
       y="0"
       width="300"
       height="300"
       id="page2"
       margin="0"
       bleed="0" />
  </sodipodi:namedview>
  <defs
     id="defs1" />
  <path
     id="path56"
     d="m 281.16906,248.76393 h -1.63983 c -0.39644,0 -0.59466,-0.19822 -0.59466,-0.59466 v -21.44385 c 0,-0.38292 0.0721,-0.65773 0.21624,-0.82892 0.15317,-0.16668 0.34689,-0.22074 0.57664,-0.16218 0.22526,0.0496 0.45051,0.22976 0.66675,0.5406 l 9.06407,12.45185 9.0821,-12.45185 c 0.22525,-0.31084 0.4505,-0.49104 0.66674,-0.5406 0.22525,-0.0586 0.41447,-0.005 0.55863,0.16218 0.15317,0.17119 0.23426,0.446 0.23426,0.82892 v 21.44385 c 0,0.39644 -0.19822,0.59466 -0.59466,0.59466 h -1.63983 c -0.39644,0 -0.59466,-0.19822 -0.59466,-0.59466 v -15.31704 l -7.28009,9.91103 c -0.13515,0.17118 -0.27931,0.25228 -0.43249,0.25228 -0.15767,0 -0.29733,-0.0811 -0.41446,-0.25228 l -7.26207,-9.91103 v 15.31704 c 0,0.39644 -0.20723,0.59466 -0.61268,0.59466 z m 0,0 m -17.96962,-22.48901 9.29834,21.80425 c 0.0946,0.20723 0.0991,0.37391 0.018,0.50456 -0.0856,0.12163 -0.24327,0.1802 -0.46852,0.1802 h -1.85606 c -0.15768,0 -0.29733,-0.036 -0.41446,-0.10812 -0.12164,-0.0721 -0.21174,-0.18471 -0.2703,-0.34238 l -1.63983,-4.01847 h -10.4336 l -1.63982,4.01847 c -0.12164,0.30183 -0.3559,0.4505 -0.70278,0.4505 h -1.83805 c -0.22975,0 -0.38743,-0.0586 -0.46852,-0.1802 -0.0856,-0.13065 -0.0811,-0.29733 0.018,-0.50456 l 9.29833,-21.80425 c 0.13065,-0.33337 0.31085,-0.50456 0.5406,-0.50456 0.23877,0 0.42347,0.17119 0.55862,0.50456 z m -0.55862,5.27987 -4.18065,10.23538 h 8.37932 z m 0,0 M 22.80295,248.76393 h -1.657844 c -0.396441,0 -0.594667,-0.19822 -0.594667,-0.59466 v -21.29969 c 0,-0.39644 0.198226,-0.59466 0.594667,-0.59466 h 1.657844 c 0.405448,0 0.612681,0.19822 0.612681,0.59466 v 12.05541 h 10.974197 v -12.05541 c 0,-0.39644 0.198226,-0.59466 0.594667,-0.59466 h 1.675857 c 0.396441,0 0.594667,0.19822 0.594667,0.59466 v 21.29969 c 0,0.39644 -0.198226,0.59466 -0.594667,0.59466 h -1.675857 c -0.396441,0 -0.594667,-0.19822 -0.594667,-0.59466 v -6.5593 H 23.415631 v 6.5593 c 0,0.39644 -0.207233,0.59466 -0.612681,0.59466 z m 0,0 m 224.04824,0 h -10.8841 c -0.39644,0 -0.59466,-0.19822 -0.59466,-0.59466 v -21.29969 c 0,-0.39644 0.19822,-0.59466 0.59466,-0.59466 h 10.8841 c 0.39644,0 0.59466,0.19822 0.59466,0.59466 v 1.47765 c 0,0.40995 -0.19822,0.61268 -0.59466,0.61268 h -8.61358 v 10.00112 h 7.44228 c 0.39644,0 0.59466,0.19822 0.59466,0.59466 v 1.42358 c 0,0.39644 -0.19822,0.59466 -0.59466,0.59466 h -7.44228 v 4.50501 h 8.61358 c 0.39644,0 0.59466,0.20723 0.59466,0.61268 v 1.47765 c 0,0.39644 -0.19822,0.59466 -0.59466,0.59466 z m 0,0 m -66.52345,0 h -10.8841 c -0.39644,0 -0.59466,-0.19822 -0.59466,-0.59466 v -21.29969 c 0,-0.39644 0.19822,-0.59466 0.59466,-0.59466 h 10.8841 c 0.39644,0 0.59466,0.19822 0.59466,0.59466 v 1.47765 c 0,0.40995 -0.19822,0.61268 -0.59466,0.61268 h -8.61357 v 10.00112 h 7.44227 c 0.39644,0 0.59466,0.19822 0.59466,0.59466 v 1.42358 c 0,0.39644 -0.19822,0.59466 -0.59466,0.59466 h -7.44227 v 4.50501 h 8.61357 c 0.39644,0 0.59466,0.20723 0.59466,0.61268 v 1.47765 c 0,0.39644 -0.19822,0.59466 -0.59466,0.59466 z m 0,0 m 42.45909,0 h -1.67586 c -0.39644,0 -0.59466,-0.19822 -0.59466,-0.59466 v -19.20936 h -5.09967 c -0.39644,0 -0.59467,-0.20273 -0.59467,-0.61268 v -1.47765 c 0,-0.39644 0.19823,-0.59466 0.59467,-0.59466 h 13.06452 c 0.40545,0 0.61268,0.19822 0.61268,0.59466 v 1.47765 c 0,0.40995 -0.20723,0.61268 -0.61268,0.61268 h -5.08165 v 19.20936 c 0,0.39644 -0.20723,0.59466 -0.61268,0.59466 z m 0,0 m -62.67734,0 h -1.65785 c -0.39644,0 -0.59466,-0.19822 -0.59466,-0.59466 v -21.29969 c 0,-0.39644 0.19822,-0.59466 0.59466,-0.59466 h 1.65785 c 0.40544,0 0.61268,0.19822 0.61268,0.59466 v 21.29969 c 0,0.39644 -0.20724,0.59466 -0.61268,0.59466 z m 0,0 m -38.21961,0.46852 c -0.71179,0 -1.41908,-0.0496 -2.12636,-0.14416 -0.7118,-0.0991 -1.46864,-0.2703 -2.27053,-0.52258 -0.79288,-0.25228 -1.65784,-0.58565 -2.59488,-1.00913 -0.3604,-0.18921 -0.446,-0.46852 -0.25228,-0.82892 l 0.63069,-1.4416 c 0.1802,-0.34689 0.45501,-0.42347 0.82892,-0.23426 1.16229,0.6262 2.20296,1.04516 3.11748,1.2614 0.91001,0.21624 1.73442,0.32436 2.46874,0.32436 1.28392,0 2.29755,-0.2703 3.04539,-0.8109 0.75684,-0.54961 1.13525,-1.32447 1.13525,-2.32458 0,-0.57664 -0.14416,-1.09022 -0.43248,-1.54973 -0.27931,-0.455 -0.66223,-0.87397 -1.15328,-1.2614 -0.48204,-0.39644 -1.04516,-0.77937 -1.69388,-1.15328 -0.63972,-0.36941 -1.31546,-0.75684 -2.03626,-1.15328 -0.71179,-0.39644 -1.40107,-0.81091 -2.07231,-1.24339 -0.66224,-0.43248 -1.25689,-0.91001 -1.78398,-1.4416 -0.53159,-0.52709 -0.95507,-1.13977 -1.27943,-1.83804 -0.31535,-0.69378 -0.46852,-1.49567 -0.46852,-2.39667 0,-0.98209 0.1712,-1.82903 0.52259,-2.54082 0.34688,-0.70729 0.82892,-1.28844 1.4416,-1.74795 0.62169,-0.46852 1.32447,-0.8109 2.10834,-1.02714 0.77937,-0.22525 1.6128,-0.34238 2.50479,-0.34238 0.88749,0 1.83805,0.11713 2.84717,0.34238 1.00912,0.22976 2.00922,0.55862 3.00934,0.9911 0.3604,0.1802 0.455,0.4505 0.28832,0.8109 l -0.59466,1.40557 c -0.0856,0.15767 -0.19371,0.26579 -0.32436,0.32436 -0.13515,0.0631 -0.28832,0.0496 -0.46852,-0.036 -0.8064,-0.36941 -1.6173,-0.65773 -2.43271,-0.86496 -0.81991,-0.21624 -1.59928,-0.32436 -2.3426,-0.32436 -0.66224,0 -1.27492,0.0991 -1.83805,0.28832 -0.55412,0.19371 -1.00011,0.49555 -1.33348,0.901 -0.33788,0.40995 -0.50456,0.94605 -0.50456,1.60378 0,0.59016 0.12614,1.11724 0.37842,1.58576 0.25229,0.45952 0.59466,0.87848 1.02714,1.26141 0.44149,0.38743 0.94605,0.74783 1.51368,1.0812 0.56313,0.33788 1.1578,0.68026 1.78399,1.02714 0.57664,0.32436 1.16229,0.66224 1.76597,1.00912 0.59916,0.33788 1.16229,0.71179 1.69388,1.11725 0.52709,0.39644 0.99561,0.84243 1.40556,1.33348 0.41897,0.48204 0.74783,1.02714 0.9911,1.63982 0.23876,0.60367 0.3604,1.27942 0.3604,2.03627 0,0.98659 -0.1802,1.84705 -0.5406,2.57686 -0.3604,0.73432 -0.86045,1.347 -1.49566,1.83805 -0.63971,0.49555 -1.36952,0.86045 -2.19844,1.09922 -0.81992,0.25228 -1.69389,0.37842 -2.63093,0.37842 z m 0,0 m -22.006103,-22.95753 9.298343,21.80425 c 0.0946,0.20723 0.0991,0.37391 0.018,0.50456 -0.0856,0.12163 -0.24325,0.1802 -0.4685,0.1802 h -1.85606 c -0.15767,0 -0.29734,-0.036 -0.41446,-0.10812 -0.12164,-0.0721 -0.21173,-0.18471 -0.2703,-0.34238 l -1.63983,-4.01847 H 94.117377 l -1.63983,4.01847 c -0.12164,0.30183 -0.35589,0.4505 -0.70278,0.4505 h -1.83804 c -0.22976,0 -0.38744,-0.0586 -0.46852,-0.1802 -0.0856,-0.13065 -0.0811,-0.29733 0.018,-0.50456 l 9.29834,-21.80425 c 0.13064,-0.33337 0.31084,-0.50456 0.5406,-0.50456 0.23876,0 0.42347,0.17119 0.55863,0.50456 z m -0.55863,5.27987 -4.18065,10.23538 h 8.379333 z m 0,0 m -20.53599,17.67766 c -0.42347,0 -0.88298,-0.0315 -1.38754,-0.0901 -0.50456,-0.0496 -1.11724,-0.1757 -1.83804,-0.37842 -0.37392,-0.11713 -0.51808,-0.36491 -0.43248,-0.73882 l 0.32436,-1.47765 c 0.0811,-0.41896 0.33337,-0.54961 0.756841,-0.39644 0.527089,0.17119 0.964059,0.27931 1.31546,0.32436 0.3604,0.036 0.64872,0.0541 0.86496,0.0541 0.41896,0 0.76585,-0.0721 1.04516,-0.21624 0.28832,-0.15317 0.49556,-0.41896 0.63071,-0.79288 0.13064,-0.36941 0.198209,-0.901 0.198209,-1.58576 v -17.06498 c 0,-0.39644 0.19823,-0.59466 0.594671,-0.59466 h 1.657839 c 0.396441,0 0.59466,0.19822 0.59466,0.59466 v 17.01092 c 0,1.85156 -0.387429,3.20756 -1.153279,4.07253 -0.756841,0.85144 -1.81552,1.27942 -3.17153,1.27942 z m 0,0 M 7.9648535,248.76393 h -1.675869 c -0.396441,0 -0.594655,-0.19822 -0.594655,-0.59466 v -19.20936 h -5.099677 c -0.39644,0 -0.594655,-0.20273 -0.594655,-0.61268 v -1.47765 c 0,-0.39644 0.198215,-0.59466 0.594655,-0.59466 H 13.659185 c 0.405448,0 0.612681,0.19822 0.612681,0.59466 v 1.47765 c 0,0.40995 -0.207233,0.61268 -0.612681,0.61268 H 8.5775355 v 19.20936 c 0,0.39644 -0.207234,0.59466 -0.612682,0.59466 z m 0,0 m 130.0443265,0 h -1.58576 c -0.39644,0 -0.59467,-0.19822 -0.59467,-0.59466 v -21.29969 c 0,-0.39644 0.19823,-0.59466 0.59467,-0.59466 h 1.58576 c 0.40545,0 0.61268,0.19822 0.61268,0.59466 v 9.13616 l 8.91992,-9.42448 c 0.10806,-0.13064 0.22075,-0.21624 0.34238,-0.25228 0.13065,-0.036 0.2703,-0.054 0.41446,-0.054 h 2.10835 c 0.25228,0 0.40545,0.0811 0.46852,0.23426 0.0586,0.14416 0.005,0.31535 -0.16219,0.50456 l -9.65874,10.12726 10.12726,10.8841 c 0.16669,0.19372 0.22075,0.36941 0.16219,0.52258 -0.0631,0.14416 -0.21624,0.21624 -0.46852,0.21624 h -2.36063 c -0.15768,0 -0.29733,-0.018 -0.41446,-0.0541 -0.12163,-0.0451 -0.22975,-0.13064 -0.32436,-0.25228 l -9.15418,-9.92904 v 9.64072 c 0,0.39644 -0.20723,0.59466 -0.61268,0.59466 z m 0,0 m 59.51376,0 h -8.91992 c -0.39644,0 -0.59466,-0.19822 -0.59466,-0.59466 v -21.29969 c 0,-0.39644 0.19822,-0.59466 0.59466,-0.59466 h 1.65784 c 0.40545,0 0.61268,0.19822 0.61268,0.59466 v 19.20936 h 6.6494 c 0.39644,0 0.59466,0.20723 0.59466,0.61268 v 1.47765 c 0,0.39644 -0.19822,0.59466 -0.59466,0.59466 z m 0,0 m -140.640603,0 h -10.8841 c -0.396441,0 -0.594667,-0.19822 -0.594667,-0.59466 v -21.29969 c 0,-0.39644 0.198226,-0.59466 0.594667,-0.59466 h 10.8841 c 0.39644,0 0.59466,0.19822 0.59466,0.59466 v 1.47765 c 0,0.40995 -0.19822,0.61268 -0.59466,0.61268 h -8.61358 v 10.00112 h 7.44227 c 0.39645,0 0.59467,0.19822 0.59467,0.59466 v 1.42358 c 0,0.39644 -0.19822,0.59466 -0.59467,0.59466 h -7.44227 v 4.50501 h 8.61358 c 0.39644,0 0.59466,0.20723 0.59466,0.61268 v 1.47765 c 0,0.39644 -0.19822,0.59466 -0.59466,0.59466 z m 0,0"
     inkscape:label="banner"
     style="stroke-width:1.15328" />
  <path
     id="path1"
     d="M 147.5938,50.767503 63.300577,107.55426 h -0.41559 v 100.32543 h 6.9197 v -96.36553 l 78.130373,-52.634267 30.34461,19.184584 v 33.870343 l -28.94243,-15.304079 -0.18752,0.35308 -0.13177,-0.19597 -51.858853,34.931279 h -0.15711 v 0.10643 l -0.58959,0.39701 0.58959,0.87509 v 74.78203 h 3.459853 v 0.21793 h 130.46055 v -0.21793 h 3.46154 v -102.0165 h -0.46964 l 0.36828,-0.58114 -39.3338,-24.865958 V 58.844421 c 0,-2.329091 -1.16623,-3.495328 -3.49532,-3.495328 h -9.65987 c -2.3426,0 -3.51391,1.166237 -3.51391,3.495328 v 11.033331 l -30.22804,-19.110249 -0.22131,0.351391 z m 47.35497,37.835318 32.51547,20.554659 v 92.02044 H 103.92168 v -65.6712 l 45.79567,-30.84806 28.48293,15.0625 0.0794,-0.15035 v 38.83543 c 0,3.99144 -0.3863,7.08131 -1.15215,9.27976 -0.77036,2.18943 -1.96475,3.70818 -3.58655,4.55963 -1.6218,0.85595 -3.68905,1.27886 -6.19833,1.27886 -1.25239,0 -2.90236,-0.10812 -4.95664,-0.32436 -2.04527,-0.22525 -4.60411,-0.82949 -7.67654,-1.80257 -2.51379,-0.91001 -3.99481,-0.14303 -4.44982,2.30769 l -1.87521,8.5415 c -0.51807,2.22548 0.30747,3.67552 2.46987,4.36029 4.21669,1.19833 7.78804,1.95517 10.7208,2.27052 2.94178,0.31084 5.6414,0.46796 8.09212,0.46796 7.96486,0 14.16713,-2.50479 18.61357,-7.51436 4.44194,-5.01858 6.66798,-12.91135 6.66798,-23.67833 z"
     inkscape:label="icon"
     style="stroke-width:0.864962" />
</svg>
