<?xml version="1.0" encoding="UTF-8" standalone="no"?>
<!-- Created with Inkscape (http://www.inkscape.org/) -->

<svg
   width="1000mm"
   height="78.403236mm"
   viewBox="0 0 1000 78.403236"
   version="1.1"
   id="svg1"
   inkscape:export-filename="bitmap.svg"
   inkscape:export-xdpi="176.51553"
   inkscape:export-ydpi="176.51553"
   sodipodi:docname="black jaskiel banner.svg"
   xmlns:inkscape="http://www.inkscape.org/namespaces/inkscape"
   xmlns:sodipodi="http://sodipodi.sourceforge.net/DTD/sodipodi-0.dtd"
   xmlns="http://www.w3.org/2000/svg"
   xmlns:svg="http://www.w3.org/2000/svg">
  <sodipodi:namedview
     id="namedview1"
     pagecolor="#505050"
     bordercolor="#ffffff"
     borderopacity="1"
     inkscape:showpageshadow="0"
     inkscape:pageopacity="0"
     inkscape:pagecheckerboard="1"
     inkscape:deskcolor="#505050"
     inkscape:document-units="mm"
     inkscape:zoom="7.2407734"
     inkscape:cx="56.623785"
     inkscape:cy="29.900121"
     inkscape:window-width="1712"
     inkscape:window-height="1040"
     inkscape:window-x="0"
     inkscape:window-y="39"
     inkscape:window-maximized="1"
     inkscape:current-layer="layer1">
    <inkscape:page
       x="0"
       y="0"
       width="1000"
       height="78.403236"
       id="page2"
       margin="0"
       bleed="0" />
  </sodipodi:namedview>
  <defs
     id="defs1" />
  <g
     inkscape:label="Layer 1"
     inkscape:groupmode="layer"
     id="layer1"
     transform="translate(416.99989,-118.19603)">
    <g
       fill="#000000"
       fill-opacity="1"
       id="g65"
       transform="matrix(3.8442746,0,0,3.8442746,-626.09005,-704.18742)">
      <g
         transform="translate(70.271613,233.91278)"
         id="g64">
        <g
           id="g63">
          <path
             d="m 3.890625,0 h -1.4375 C 2.109375,0 1.9375,-0.171875 1.9375,-0.515625 v -18.46875 C 1.9375,-19.328125 2.109375,-19.5 2.453125,-19.5 h 1.4375 c 0.351563,0 0.53125,0.171875 0.53125,0.515625 V -8.53125 H 13.9375 v -10.453125 c 0,-0.34375 0.171875,-0.515625 0.515625,-0.515625 h 1.453125 c 0.34375,0 0.515625,0.171875 0.515625,0.515625 v 18.46875 C 16.421875,-0.171875 16.25,0 15.90625,0 H 14.453125 C 14.109375,0 13.9375,-0.171875 13.9375,-0.515625 v -5.6875 H 4.421875 v 5.6875 C 4.421875,-0.171875 4.242188,0 3.890625,0 Z m 0,0"
             id="path62" />
        </g>
      </g>
    </g>
    <g
       fill="#000000"
       fill-opacity="1"
       id="g68"
       transform="matrix(3.8442746,0,0,3.8442746,-626.09005,-704.18742)">
      <g
         transform="translate(91.821521,233.91278)"
         id="g67">
        <g
           id="g66">
          <path
             d="m 11.890625,0 h -9.4375 C 2.109375,0 1.9375,-0.171875 1.9375,-0.515625 v -18.46875 C 1.9375,-19.328125 2.109375,-19.5 2.453125,-19.5 h 9.4375 c 0.34375,0 0.515625,0.171875 0.515625,0.515625 v 1.28125 c 0,0.355469 -0.171875,0.53125 -0.515625,0.53125 H 4.421875 V -8.5 H 10.875 c 0.34375,0 0.515625,0.171875 0.515625,0.515625 V -6.75 c 0,0.34375 -0.171875,0.515625 -0.515625,0.515625 H 4.421875 v 3.90625 h 7.46875 c 0.34375,0 0.515625,0.179687 0.515625,0.53125 v 1.28125 C 12.40625,-0.171875 12.234375,0 11.890625,0 Z m 0,0"
             id="path65" />
        </g>
      </g>
    </g>
    <g
       fill="#000000"
       fill-opacity="1"
       id="g71"
       transform="matrix(3.8442746,0,0,3.8442746,-626.09005,-704.18742)">
      <g
         transform="translate(119.08235,233.91278)"
         id="g70">
        <g
           id="g69">
          <path
             d="M 3.625,0.40625 C 3.257812,0.40625 2.859375,0.378906 2.421875,0.328125 1.984375,0.285156 1.453125,0.175781 0.828125,0 0.503906,-0.101562 0.378906,-0.316406 0.453125,-0.640625 l 0.28125,-1.28125 c 0.070313,-0.363281 0.289063,-0.476563 0.65625,-0.34375 0.457031,0.148437 0.835937,0.242187 1.140625,0.28125 0.3125,0.03125 0.5625,0.046875 0.75,0.046875 0.363281,0 0.664062,-0.0625 0.90625,-0.1875 0.25,-0.132812 0.429688,-0.363281 0.546875,-0.6875 0.113281,-0.320312 0.171875,-0.78125 0.171875,-1.375 v -14.796875 c 0,-0.34375 0.171875,-0.515625 0.515625,-0.515625 h 1.4375 c 0.34375,0 0.515625,0.171875 0.515625,0.515625 v 14.75 c 0,1.605469 -0.335938,2.78125 -1,3.53125 C 5.71875,0.0351562 4.800781,0.40625 3.625,0.40625 Z m 0,0"
             id="path68" />
        </g>
      </g>
    </g>
    <g
       fill="#000000"
       fill-opacity="1"
       id="g74"
       transform="matrix(3.8442746,0,0,3.8442746,-626.09005,-704.18742)">
      <g
         transform="translate(131.54514,233.91278)"
         id="g73">
        <g
           id="g72">
          <path
             d="m 9.453125,-19.5 8.0625,18.90625 c 0.08203,0.179688 0.08594,0.324219 0.01563,0.4375 C 17.457031,-0.0507812 17.320312,0 17.125,0 H 15.515625 C 15.378906,0 15.257812,-0.03125 15.15625,-0.09375 15.050781,-0.15625 14.972656,-0.253906 14.921875,-0.390625 L 13.5,-3.875 H 4.453125 L 3.03125,-0.390625 C 2.925781,-0.128906 2.722656,0 2.421875,0 H 0.828125 C 0.628906,0 0.492188,-0.0507812 0.421875,-0.15625 0.347656,-0.269531 0.351562,-0.414062 0.4375,-0.59375 L 8.5,-19.5 c 0.113281,-0.289062 0.269531,-0.4375 0.46875,-0.4375 0.207031,0 0.367188,0.148438 0.484375,0.4375 z m -0.484375,4.578125 -3.625,8.875 h 7.265625 z m 0,0"
             id="path71" />
        </g>
      </g>
    </g>
    <g
       fill="#000000"
       fill-opacity="1"
       id="g77"
       transform="matrix(3.8442746,0,0,3.8442746,-626.09005,-704.18742)">
      <g
         transform="translate(152.68893,233.91278)"
         id="g76">
        <g
           id="g75">
          <path
             d="m 7.390625,0.40625 c -0.617187,0 -1.230469,-0.042969 -1.84375,-0.125 -0.617187,-0.085938 -1.273437,-0.234375 -1.96875,-0.453125 -0.6875,-0.21875 -1.4375,-0.507813 -2.25,-0.875 -0.3125,-0.164063 -0.386719,-0.40625 -0.21875,-0.71875 l 0.546875,-1.25 C 1.8125,-3.316406 2.050781,-3.382812 2.375,-3.21875 c 1.007812,0.542969 1.910156,0.90625 2.703125,1.09375 0.789063,0.1875 1.503906,0.28125 2.140625,0.28125 1.113281,0 1.992188,-0.234375 2.640625,-0.703125 0.65625,-0.476563 0.984375,-1.148437 0.984375,-2.015625 0,-0.5 -0.125,-0.945312 -0.375,-1.34375 C 10.226562,-6.300781 9.894531,-6.664062 9.46875,-7 9.050781,-7.34375 8.5625,-7.675781 8,-8 7.445312,-8.320312 6.859375,-8.65625 6.234375,-9 5.617188,-9.34375 5.019531,-9.703125 4.4375,-10.078125 c -0.574219,-0.375 -1.089844,-0.789063 -1.546875,-1.25 C 2.429688,-11.785156 2.0625,-12.316406 1.78125,-12.921875 1.507812,-13.523438 1.375,-14.21875 1.375,-15 c 0,-0.851562 0.148438,-1.585938 0.453125,-2.203125 0.300781,-0.613281 0.71875,-1.117187 1.25,-1.515625 0.539063,-0.40625 1.148437,-0.703125 1.828125,-0.890625 0.675781,-0.195313 1.398438,-0.296875 2.171875,-0.296875 0.769531,0 1.59375,0.101562 2.46875,0.296875 0.875,0.199219 1.742187,0.484375 2.609375,0.859375 0.3125,0.15625 0.394531,0.390625 0.25,0.703125 l -0.515625,1.21875 c -0.07422,0.136719 -0.167969,0.230469 -0.28125,0.28125 -0.117187,0.05469 -0.25,0.04297 -0.40625,-0.03125 -0.699219,-0.320313 -1.402344,-0.570313 -2.109375,-0.75 -0.710938,-0.1875 -1.386719,-0.28125 -2.03125,-0.28125 -0.574219,0 -1.105469,0.08594 -1.59375,0.25 -0.480469,0.167969 -0.867188,0.429687 -1.15625,0.78125 -0.292969,0.355469 -0.4375,0.820313 -0.4375,1.390625 0,0.511719 0.109375,0.96875 0.328125,1.375 0.21875,0.398438 0.515625,0.761719 0.890625,1.09375 0.382812,0.335938 0.820312,0.648438 1.3125,0.9375 0.488281,0.292969 1.003906,0.589844 1.546875,0.890625 0.5,0.28125 1.007813,0.574219 1.53125,0.875 0.519531,0.292969 1.007813,0.617187 1.46875,0.96875 0.457031,0.34375 0.863281,0.730469 1.21875,1.15625 0.363281,0.417969 0.648437,0.890625 0.859375,1.421875 0.207031,0.523438 0.3125,1.109375 0.3125,1.765625 0,0.855469 -0.15625,1.601563 -0.46875,2.234375 -0.3125,0.636719 -0.746094,1.167969 -1.296875,1.59375 -0.554687,0.429688 -1.1875,0.746094 -1.90625,0.953125 -0.710937,0.21875 -1.46875,0.328125 -2.28125,0.328125 z m 0,0"
             id="path74" />
        </g>
      </g>
    </g>
    <g
       fill="#000000"
       fill-opacity="1"
       id="g80"
       transform="matrix(3.8442746,0,0,3.8442746,-626.09005,-704.18742)">
      <g
         transform="translate(170.22832,233.91278)"
         id="g79">
        <g
           id="g78">
          <path
             d="m 3.828125,0 h -1.375 C 2.109375,0 1.9375,-0.171875 1.9375,-0.515625 v -18.46875 C 1.9375,-19.328125 2.109375,-19.5 2.453125,-19.5 h 1.375 c 0.351563,0 0.53125,0.171875 0.53125,0.515625 v 7.921875 l 7.734375,-8.171875 c 0.09375,-0.113281 0.191406,-0.1875 0.296875,-0.21875 C 12.503906,-19.484375 12.625,-19.5 12.75,-19.5 h 1.828125 c 0.21875,0 0.351563,0.07031 0.40625,0.203125 0.05078,0.125 0.0039,0.273437 -0.140625,0.4375 l -8.375,8.78125 8.78125,9.4375 c 0.144531,0.167969 0.191406,0.320313 0.140625,0.453125 C 15.335938,-0.0625 15.203125,0 14.984375,0 H 12.9375 c -0.136719,0 -0.257812,-0.015625 -0.359375,-0.046875 -0.105469,-0.0390625 -0.199219,-0.113281 -0.28125,-0.21875 L 4.359375,-8.875 v 8.359375 C 4.359375,-0.171875 4.179688,0 3.828125,0 Z m 0,0"
             id="path77" />
        </g>
      </g>
    </g>
    <g
       fill="#000000"
       fill-opacity="1"
       id="g83"
       transform="matrix(3.8442746,0,0,3.8442746,-626.09005,-704.18742)">
      <g
         transform="translate(189.32877,233.91278)"
         id="g82">
        <g
           id="g81">
          <path
             d="m 3.890625,0 h -1.4375 C 2.109375,0 1.9375,-0.171875 1.9375,-0.515625 v -18.46875 C 1.9375,-19.328125 2.109375,-19.5 2.453125,-19.5 h 1.4375 c 0.351563,0 0.53125,0.171875 0.53125,0.515625 v 18.46875 C 4.421875,-0.171875 4.242188,0 3.890625,0 Z m 0,0"
             id="path80" />
        </g>
      </g>
    </g>
    <g
       fill="#000000"
       fill-opacity="1"
       id="g86"
       transform="matrix(3.8442746,0,0,3.8442746,-626.09005,-704.18742)">
      <g
         transform="translate(198.85984,233.91278)"
         id="g85">
        <g
           id="g84">
          <path
             d="m 11.890625,0 h -9.4375 C 2.109375,0 1.9375,-0.171875 1.9375,-0.515625 v -18.46875 C 1.9375,-19.328125 2.109375,-19.5 2.453125,-19.5 h 9.4375 c 0.34375,0 0.515625,0.171875 0.515625,0.515625 v 1.28125 c 0,0.355469 -0.171875,0.53125 -0.515625,0.53125 H 4.421875 V -8.5 H 10.875 c 0.34375,0 0.515625,0.171875 0.515625,0.515625 V -6.75 c 0,0.34375 -0.171875,0.515625 -0.515625,0.515625 H 4.421875 v 3.90625 h 7.46875 c 0.34375,0 0.515625,0.179687 0.515625,0.53125 v 1.28125 C 12.40625,-0.171875 12.234375,0 11.890625,0 Z m 0,0"
             id="path83" />
        </g>
      </g>
    </g>
    <g
       fill="#000000"
       fill-opacity="1"
       id="g89"
       transform="matrix(3.8442746,0,0,3.8442746,-626.09005,-704.18742)">
      <g
         transform="translate(215.47275,233.91278)"
         id="g88">
        <g
           id="g87">
          <path
             d="M 10.1875,0 H 2.453125 C 2.109375,0 1.9375,-0.171875 1.9375,-0.515625 v -18.46875 C 1.9375,-19.328125 2.109375,-19.5 2.453125,-19.5 h 1.4375 c 0.351563,0 0.53125,0.171875 0.53125,0.515625 v 16.65625 H 10.1875 c 0.34375,0 0.515625,0.179687 0.515625,0.53125 v 1.28125 C 10.703125,-0.171875 10.53125,0 10.1875,0 Z m 0,0"
             id="path86" />
        </g>
      </g>
    </g>
    <g
       fill="#000000"
       fill-opacity="1"
       id="g92"
       transform="matrix(3.8442746,0,0,3.8442746,-626.09005,-704.18742)">
      <g
         transform="translate(240.34759,233.91278)"
         id="g91">
        <g
           id="g90">
          <path
             d="M 7.21875,0 H 5.765625 C 5.421875,0 5.25,-0.171875 5.25,-0.515625 v -16.65625 H 0.828125 c -0.34375,0 -0.515625,-0.175781 -0.515625,-0.53125 v -1.28125 C 0.3125,-19.328125 0.484375,-19.5 0.828125,-19.5 H 12.15625 c 0.351562,0 0.53125,0.171875 0.53125,0.515625 v 1.28125 c 0,0.355469 -0.179688,0.53125 -0.53125,0.53125 H 7.75 v 16.65625 C 7.75,-0.171875 7.570312,0 7.21875,0 Z m 0,0"
             id="path89" />
        </g>
      </g>
    </g>
    <g
       fill="#000000"
       fill-opacity="1"
       id="g95"
       transform="matrix(3.8442746,0,0,3.8442746,-626.09005,-704.18742)">
      <g
         transform="translate(256.54168,233.91278)"
         id="g94">
        <g
           id="g93">
          <path
             d="m 11.890625,0 h -9.4375 C 2.109375,0 1.9375,-0.171875 1.9375,-0.515625 v -18.46875 C 1.9375,-19.328125 2.109375,-19.5 2.453125,-19.5 h 9.4375 c 0.34375,0 0.515625,0.171875 0.515625,0.515625 v 1.28125 c 0,0.355469 -0.171875,0.53125 -0.515625,0.53125 H 4.421875 V -8.5 H 10.875 c 0.34375,0 0.515625,0.171875 0.515625,0.515625 V -6.75 c 0,0.34375 -0.171875,0.515625 -0.515625,0.515625 H 4.421875 v 3.90625 h 7.46875 c 0.34375,0 0.515625,0.179687 0.515625,0.53125 v 1.28125 C 12.40625,-0.171875 12.234375,0 11.890625,0 Z m 0,0"
             id="path92" />
        </g>
      </g>
    </g>
    <g
       fill="#000000"
       fill-opacity="1"
       id="g98"
       transform="matrix(3.8442746,0,0,3.8442746,-626.09005,-704.18742)">
      <g
         transform="translate(273.15459,233.91278)"
         id="g97">
        <g
           id="g96">
          <path
             d="m 9.453125,-19.5 8.0625,18.90625 c 0.08203,0.179688 0.08594,0.324219 0.01563,0.4375 C 17.457031,-0.0507812 17.320312,0 17.125,0 H 15.515625 C 15.378906,0 15.257812,-0.03125 15.15625,-0.09375 15.050781,-0.15625 14.972656,-0.253906 14.921875,-0.390625 L 13.5,-3.875 H 4.453125 L 3.03125,-0.390625 C 2.925781,-0.128906 2.722656,0 2.421875,0 H 0.828125 C 0.628906,0 0.492188,-0.0507812 0.421875,-0.15625 0.347656,-0.269531 0.351562,-0.414062 0.4375,-0.59375 L 8.5,-19.5 c 0.113281,-0.289062 0.269531,-0.4375 0.46875,-0.4375 0.207031,0 0.367188,0.148438 0.484375,0.4375 z m -0.484375,4.578125 -3.625,8.875 h 7.265625 z m 0,0"
             id="path95" />
        </g>
      </g>
    </g>
  </g>
  <path
     d="m 937.23022,76.841496 h -5.46608 c -1.32147,0 -1.98221,-0.660735 -1.98221,-1.982204 V 3.3798093 c 0,-1.2764184 0.24027,-2.1924399 0.72081,-2.76307246 0.51057,-0.55561687 1.15628,-0.73581725 1.92213,-0.54060113 0.75084,0.16518848 1.50167,0.76585256 2.22247,1.80200379 L 964.86094,43.384293 995.1346,1.8781395 c 0.75084,-1.03615123 1.50167,-1.63681915 2.22248,-1.80200379 0.75083,-0.19521227 1.38153,-0.01499267 1.86207,0.54060113 C 999.72972,1.1873694 1000,2.1033909 1000,3.3798093 V 74.859292 c 0,1.321469 -0.66072,1.982204 -1.98219,1.982204 h -5.46608 c -1.32147,0 -1.9822,-0.660735 -1.9822,-1.982204 V 23.802519 l -24.26699,33.036735 c -0.4505,0.570633 -0.93103,0.840935 -1.4416,0.840935 -0.52558,0 -0.9911,-0.270302 -1.38154,-0.840935 L 939.27249,23.802519 v 51.056773 c 0,1.321469 -0.69077,1.982204 -2.04227,1.982204 z m 0,0"
     id="path98"
     style="stroke-width:3.84427" />
  <path
     d="M 26.549522,76.841496 H 20.96331 c -1.321469,0 -1.982204,-0.660735 -1.982204,-1.982204 v -64.0312 H 1.9822041 C 0.66073471,10.828092 0,10.152341 0,8.7858206 V 3.8603436 C 0,2.5388742 0.66073471,1.8781395 1.9822041,1.8781395 H 45.530628 c 1.351501,0 2.042271,0.6607347 2.042271,1.9822041 v 4.925477 c 0,1.3665204 -0.69077,2.0422714 -2.042271,2.0422714 H 28.591793 v 64.0312 c 0,1.321469 -0.69077,1.982204 -2.042271,1.982204 z m 0,0"
     id="path59"
     style="stroke-width:3.84427" />
</svg>
