<?xml version="1.0" encoding="UTF-8" standalone="no"?>
<!-- Created with Inkscape (http://www.inkscape.org/) -->

<svg
   width="999.99994mm"
   height="78.403152mm"
   viewBox="0 0 999.99994 78.403153"
   version="1.1"
   id="svg1"
   inkscape:export-filename="bitmap.svg"
   inkscape:export-xdpi="176.51553"
   inkscape:export-ydpi="176.51553"
   sodipodi:docname="black jaskiel banner.svg"
   xmlns:inkscape="http://www.inkscape.org/namespaces/inkscape"
   xmlns:sodipodi="http://sodipodi.sourceforge.net/DTD/sodipodi-0.dtd"
   xmlns:xlink="http://www.w3.org/1999/xlink"
   xmlns="http://www.w3.org/2000/svg"
   xmlns:svg="http://www.w3.org/2000/svg">
  <sodipodi:namedview
     id="namedview1"
     pagecolor="#505050"
     bordercolor="#ffffff"
     borderopacity="1"
     inkscape:showpageshadow="0"
     inkscape:pageopacity="0"
     inkscape:pagecheckerboard="1"
     inkscape:deskcolor="#505050"
     inkscape:document-units="mm"
     inkscape:zoom="7.2407734"
     inkscape:cx="56.623785"
     inkscape:cy="29.900121"
     inkscape:window-width="1712"
     inkscape:window-height="1040"
     inkscape:window-x="0"
     inkscape:window-y="39"
     inkscape:window-maximized="1"
     inkscape:current-layer="layer1">
    <inkscape:page
       x="0"
       y="0"
       width="999.99994"
       height="78.403152"
       id="page1"
       margin="0"
       bleed="0" />
  </sodipodi:namedview>
  <defs
     id="defs1">
    <linearGradient
       inkscape:collect="always"
       xlink:href="#linearGradient15"
       id="linearGradient16"
       x1="0"
       y1="500"
       x2="1000"
       y2="500"
       gradientUnits="userSpaceOnUse"
       gradientTransform="translate(0,-460.79856)" />
    <linearGradient
       id="linearGradient15"
       inkscape:collect="always">
      <stop
         style="stop-color:#ae8331;stop-opacity:1;"
         offset="0"
         id="stop15" />
      <stop
         style="stop-color:#fbefae;stop-opacity:1;"
         offset="0.50048637"
         id="stop19" />
      <stop
         style="stop-color:#ae8331;stop-opacity:1;"
         offset="1"
         id="stop18" />
    </linearGradient>
  </defs>
  <path
     id="rect15"
     style="display:inline;fill:url(#linearGradient16);fill-rule:evenodd;stroke-width:0.352999"
     inkscape:label="gold background"
     d="m 932.42474,0.07614949 c -0.76585,-0.19522 -1.41128,-0.0151 -1.92185,0.54054 -0.48053,0.57063001 -0.72088,1.48672001 -0.72088,2.76314001 V 74.859179 c 0,1.32147 0.66084,1.98231 1.9823,1.98231 h 5.46582 c 1.35151,0 2.04225,-0.66084 2.04225,-1.98231 v -51.05683 l 24.20679,33.03674 c 0.39044,0.57064 0.85625,0.84078 1.38183,0.84078 0.51057,0 0.99128,-0.27014 1.44178,-0.84078 l 24.26673,-33.03674 v 51.05683 c 0,1.32147 0.66084,1.98231 1.98231,1.98231 h 5.46582 c 1.32146,0 1.9823,-0.66084 1.9823,-1.98231 V 3.3798295 c 0,-1.27642 -0.27026,-2.19251 -0.78083,-2.76314001 -0.48053,-0.55564 -1.11107,-0.73575 -1.8619,-0.54054 -0.7208,0.16519 -1.47177,0.76581 -2.2226,1.80196001 L 964.861,43.384099 934.64734,1.8781095 c -0.7208,-1.03615001 -1.47176,-1.63677001 -2.2226,-1.80196001 z m -601.34107,0.11989 c -0.76586,0 -1.36648,0.57083 -1.80196,1.68207001 L 298.28722,74.558939 c -0.33042,0.69077 -0.34526,1.24607 -0.06,1.68155 0.27031,0.40546 0.79581,0.601 1.56167,0.601 h 6.12675 c 1.15629,0 1.93705,-0.4956 2.3425,-1.50172 l 5.46633,-13.39504 h 34.77876 l 5.46581,13.39504 c 0.19522,0.52559 0.49579,0.90075 0.90124,1.14102 0.39043,0.24027 0.85572,0.3607 1.38131,0.3607 h 6.18722 c 0.75083,0 1.27632,-0.19554 1.56166,-0.601 0.27033,-0.43548 0.2554,-0.99078 -0.0599,-1.68155 L 332.94604,1.8781095 c -0.4505,-1.11124001 -1.06654,-1.68207001 -1.86242,-1.68207001 z m 544.38589,0 c -0.76585,0 -1.36647,0.57083 -1.80196,1.68207001 L 842.67311,74.558939 c -0.33041,0.69077 -0.34578,1.24607 -0.0605,1.68155 0.2703,0.40546 0.79633,0.601 1.56218,0.601 h 6.12676 c 1.15628,0 1.93704,-0.4956 2.34249,-1.50172 l 5.46582,-13.39504 h 34.77875 l 5.46633,13.39504 c 0.19522,0.52559 0.49527,0.90075 0.90072,1.14102 0.39044,0.24027 0.85625,0.3607 1.38183,0.3607 h 6.18671 c 0.75083,0 1.27632,-0.19554 1.56166,-0.601 0.27034,-0.43548 0.2554,-0.99078 -0.06,-1.68155 L 877.33137,1.8781095 c -0.4505,-1.11124001 -1.06602,-1.68207001 -1.8619,-1.68207001 z m -470.37129,0.12041 c -2.9733,0 -5.75147,0.39018 -8.34936,1.14101001 -2.61291,0.7208 -4.95569,1.86235 -7.028,3.42408 -2.04226,1.53171 -3.64859,3.46838 -4.80487,5.8259995 -1.1713,2.37264 -1.74201,5.19613 -1.74201,8.46977 0,3.00334 0.51049,5.67609 1.56166,7.98866 1.0812,2.32759 2.49288,4.36981 4.26485,6.12676 1.75695,1.77197 3.73896,3.36379 5.94641,4.80539 2.23749,1.4416 4.53495,2.8235 6.90759,4.14497 2.40267,1.32147 4.65533,2.61284 6.7877,3.84421 2.1624,1.24638 4.03938,2.52274 5.64617,3.84421 1.63682,1.29143 2.91317,2.6877 3.84421,4.20439 0.96107,1.53171 1.44177,3.24396 1.44177,5.16609 0,3.33371 -1.26146,5.91633 -3.78427,7.74837 -2.49277,1.802 -5.87156,2.70319 -10.15131,2.70319 -2.44773,0 -5.19558,-0.36027 -8.22896,-1.08107 -3.04839,-0.7208 -6.51731,-2.11759 -10.39161,-4.20491 -1.24639,-0.6307 -2.16247,-0.37545 -2.76314,0.78083 l -2.1022,4.80539 c -0.64572,1.20134 -0.36056,2.13244 0.84078,2.76314 3.12347,1.41157 6.00666,2.52268 8.6496,3.36362 2.67297,0.84093 5.19589,1.41164 7.56853,1.74201 2.35762,0.31535 4.7153,0.48059 7.08794,0.48059 3.12347,0 6.03645,-0.42048 8.76949,-1.26142 2.76307,-0.79588 5.19586,-2.01254 7.32823,-3.66437 2.11736,-1.63682 3.78441,-3.67904 4.98574,-6.12676 1.20133,-2.43271 1.80196,-5.30048 1.80196,-8.58914 0,-2.52281 -0.40559,-4.77546 -1.20148,-6.7877 -0.8109,-2.04227 -1.90712,-3.85955 -3.30367,-5.46633 -1.36652,-1.63682 -2.92803,-3.12322 -4.68498,-4.44469 -1.77197,-1.35151 -3.64947,-2.59807 -5.64669,-3.72432 -2.01223,-1.15629 -3.96432,-2.28242 -5.88646,-3.36362 -2.08732,-1.15629 -4.06932,-2.29783 -5.94641,-3.42408 -1.8921,-1.11124 -3.57405,-2.31248 -5.04568,-3.60392 -1.44161,-1.27642 -2.58316,-2.67269 -3.42408,-4.20439 -0.84095,-1.56174 -1.26091,-3.3188 -1.26091,-5.28599 0,-2.19243 0.5553,-3.9794 1.68155,-5.34592 1.11124,-1.35151 2.59815,-2.35772 4.44521,-3.00344 1.87708,-0.6306895 3.9193,-0.9611795 6.12676,-0.9611795 2.47775,0 5.07526,0.36079 7.8083,1.0815895 2.71803,0.69077 5.42108,1.65166 8.10907,2.88303 0.60067,0.28532 1.11168,0.33013 1.56218,0.11989 0.43548,-0.19522 0.79575,-0.55549 1.08107,-1.08107 l 1.98231,-4.6849895 c 0.55562,-1.20134 0.24015,-2.10253 -0.96118,-2.70319 -3.33371,-1.44161 -6.66769,-2.53783 -10.03143,-3.30368 -3.36374,-0.75083001 -6.53209,-1.14101001 -9.49038,-1.14101001 z M 1.98231,1.8781095 C 0.66084,1.8781095 0,2.5384295 0,3.8598995 v 4.9258 c 0,1.3665195 0.66084,2.0422495 1.98231,2.0422495 h 16.99896 v 64.03123 c 0,1.32147 0.66032,1.98231 1.98179,1.98231 h 5.58622 c 1.3515,0 2.04226,-0.66084 2.04226,-1.98231 v -64.03123 h 16.93901 c 1.35151,0 2.04226,-0.67573 2.04226,-2.0422495 v -4.9258 c 0,-1.32147 -0.69075,-1.98179 -2.04226,-1.98179 z m 68.50124,0 c -1.32147,0 -1.9823,0.66032 -1.9823,1.98179 V 74.859179 c 0,1.32147 0.66083,1.98231 1.9823,1.98231 h 5.52628 c 1.3515,0 2.04225,-0.66084 2.04225,-1.98231 v -21.8643 h 36.58072 v 21.8643 c 0,1.32147 0.66083,1.98231 1.9823,1.98231 h 5.58623 c 1.32147,0 1.9823,-0.66084 1.9823,-1.98231 V 3.8598995 c 0,-1.32147 -0.66083,-1.98179 -1.9823,-1.98179 h -5.58623 c -1.32147,0 -1.9823,0.66032 -1.9823,1.98179 V 44.045039 H 78.05208 V 3.8598995 c 0,-1.32147 -0.69075,-1.98179 -2.04225,-1.98179 z m 82.84404,0 c -1.32147,0 -1.98231,0.66032 -1.98231,1.98179 V 74.859179 c 0,1.32147 0.66084,1.98231 1.98231,1.98231 h 36.27996 c 1.32147,0 1.98231,-0.66084 1.98231,-1.98231 v -4.92579 c 0,-1.35151 -0.66084,-2.04226 -1.98231,-2.04226 h -28.71143 v -15.01665 h 24.80727 c 1.32147,0 1.98231,-0.66032 1.98231,-1.98179 v -4.74545 c 0,-1.32147 -0.66084,-1.98231 -1.98231,-1.98231 h -24.80727 v -33.33698 h 28.71143 c 1.32147,0 1.98231,-0.67573 1.98231,-2.0422495 v -4.9258 c 0,-1.32147 -0.66084,-1.98179 -1.98231,-1.98179 z m 116.21048,0 c -1.32147,0 -1.98179,0.66032 -1.98179,1.98179 V 60.743249 c 0,2.28254 -0.22546,4.05461 -0.66094,5.28598 -0.4505,1.24639 -1.14113,2.13269 -2.1022,2.64325 -0.93104,0.48054 -2.08747,0.72037 -3.48403,0.72037 -0.7208,0 -1.68169,-0.0597 -2.88302,-0.17983 -1.17131,-0.15017 -2.62831,-0.51096 -4.38527,-1.08159 -1.41156,-0.51057 -2.25254,-0.0747 -2.52284,1.32188 l -1.08107,4.92528 c -0.28532,1.24639 0.19539,2.07247 1.44177,2.4629 2.40267,0.67575 4.44489,1.09624 6.12676,1.26142 1.68187,0.19522 3.21347,0.30024 4.62504,0.30024 4.52003,0 8.04916,-1.4267 10.57197,-4.26485 2.55283,-2.88321 3.84421,-7.40302 3.84421,-13.57488 V 3.8598995 c 0,-1.32147 -0.66084,-1.98179 -1.98231,-1.98179 z m 185.20678,0 c -1.32147,0 -1.98231,0.66032 -1.98231,1.98179 V 74.859179 c 0,1.32147 0.66084,1.98231 1.98231,1.98231 h 5.28599 c 1.3515,0 2.04225,-0.66084 2.04225,-1.98231 v -32.13602 l 30.5139,33.0972 c 0.31535,0.40546 0.67562,0.69061 1.08107,0.84078 0.39043,0.12015 0.85572,0.18035 1.38131,0.18035 h 7.86877 c 0.84093,0 1.35143,-0.24035 1.56166,-0.72088 0.19522,-0.51057 0.0151,-1.0963 -0.54053,-1.74202 L 470.18164,38.098119 502.3776,4.3404895 c 0.55564,-0.6307 0.73575,-1.20102 0.54054,-1.68155 -0.21023,-0.51058 -0.72073,-0.78083 -1.56166,-0.78083 h -7.028 c -0.48053,0 -0.94582,0.0597 -1.38131,0.17983 -0.40545,0.12014 -0.78061,0.40581 -1.14101,0.84129 L 462.07309,34.313849 V 3.8598995 c 0,-1.32147 -0.69075,-1.98179 -2.04225,-1.98179 z m 73.42705,0 c -1.32147,0 -1.9818,0.66032 -1.9818,1.98179 V 74.859179 c 0,1.32147 0.66033,1.98231 1.9818,1.98231 h 5.52627 c 1.35151,0 2.04226,-0.66084 2.04226,-1.98231 V 3.8598995 c 0,-1.32147 -0.69075,-1.98179 -2.04226,-1.98179 z m 36.64014,0 c -1.32147,0 -1.98231,0.66032 -1.98231,1.98179 V 74.859179 c 0,1.32147 0.66084,1.98231 1.98231,1.98231 h 36.28047 c 1.32147,0 1.98231,-0.66084 1.98231,-1.98231 v -4.92579 c 0,-1.35151 -0.66084,-2.04226 -1.98231,-2.04226 h -28.71194 v -15.01665 h 24.80778 c 1.32147,0 1.9818,-0.66032 1.9818,-1.98179 v -4.74545 c 0,-1.32147 -0.66033,-1.98231 -1.9818,-1.98231 h -24.80778 v -33.33698 h 28.71194 c 1.32147,0 1.98231,-0.67573 1.98231,-2.0422495 v -4.9258 c 0,-1.32147 -0.66084,-1.98179 -1.98231,-1.98179 z m 63.86483,0 c -1.32147,0 -1.98231,0.66032 -1.98231,1.98179 V 74.859179 c 0,1.32147 0.66084,1.98231 1.98231,1.98231 h 29.73307 c 1.32147,0 1.98231,-0.66084 1.98231,-1.98231 v -4.92579 c 0,-1.35151 -0.66084,-2.04226 -1.98231,-2.04226 H 636.2454 V 3.8598995 c 0,-1.32147 -0.69075,-1.98179 -2.04225,-1.98179 z m 89.37853,0 c -1.32147,0 -1.98231,0.66032 -1.98231,1.98179 v 4.9258 c 0,1.3665195 0.66084,2.0422495 1.98231,2.0422495 h 16.99896 v 64.03123 c 0,1.32147 0.66084,1.98231 1.98231,1.98231 h 5.58622 c 1.3515,0 2.04225,-0.66084 2.04225,-1.98231 v -64.03123 h 16.93902 c 1.3515,0 2.04225,-0.67573 2.04225,-2.0422495 v -4.9258 c 0,-1.32147 -0.69075,-1.98179 -2.04225,-1.98179 z m 68.50176,0 c -1.32147,0 -1.98231,0.66032 -1.98231,1.98179 V 74.859179 c 0,1.32147 0.66084,1.98231 1.98231,1.98231 h 36.27995 c 1.32147,0 1.98231,-0.66084 1.98231,-1.98231 v -4.92579 c 0,-1.35151 -0.66084,-2.04226 -1.98231,-2.04226 h -28.71194 v -15.01665 h 24.80779 c 1.32147,0 1.98231,-0.66032 1.98231,-1.98179 v -4.74545 c 0,-1.32147 -0.66084,-1.98231 -1.98231,-1.98231 h -24.80779 v -33.33698 h 28.71194 c 1.32147,0 1.98231,-0.67573 1.98231,-2.0422495 v -4.9258 c 0,-1.32147 -0.66084,-1.98179 -1.98231,-1.98179 z M 331.08367,19.477549 345.0792,53.595359 h -27.93112 z m 544.38589,0 13.99553,34.11781 h -27.93111 z"
     inkscape:export-filename="../../Pictures/jaskiel-gold-banner.svg"
     inkscape:export-xdpi="176.51553"
     inkscape:export-ydpi="176.51553" />
</svg>
