<?xml version="1.0" encoding="UTF-8" standalone="no"?>
<svg
   width="198.29697"
   zoomAndPan="magnify"
   viewBox="0 0 148.72272 135.49284"
   height="180.65712"
   preserveAspectRatio="xMidYMid"
   version="1.0"
   id="svg59"
   sodipodi:docname="jaskiel-icon.svg"
   inkscape:version="1.4 (e7c3feb1, 2024-10-09)"
   inkscape:export-filename="jaskiel team black logo.svg"
   inkscape:export-xdpi="27.678787"
   inkscape:export-ydpi="27.678787"
   xmlns:inkscape="http://www.inkscape.org/namespaces/inkscape"
   xmlns:sodipodi="http://sodipodi.sourceforge.net/DTD/sodipodi-0.dtd"
   xmlns="http://www.w3.org/2000/svg"
   xmlns:svg="http://www.w3.org/2000/svg">
  <sodipodi:namedview
     id="namedview59"
     pagecolor="#505050"
     bordercolor="#ffffff"
     borderopacity="1"
     inkscape:showpageshadow="0"
     inkscape:pageopacity="0"
     inkscape:pagecheckerboard="1"
     inkscape:deskcolor="#505050"
     inkscape:zoom="2.4373264"
     inkscape:cx="174.37139"
     inkscape:cy="219.29767"
     inkscape:window-width="1920"
     inkscape:window-height="956"
     inkscape:window-x="1710"
     inkscape:window-y="25"
     inkscape:window-maximized="0"
     inkscape:current-layer="svg59">
    <inkscape:page
       x="-2.3551046e-17"
       y="1.3502606e-16"
       width="148.72272"
       height="135.49284"
       id="page1"
       margin="0"
       bleed="0" />
  </sodipodi:namedview>
  <defs
     id="defs1" />
  <path
     style="fill:#1a1a1a;fill-rule:evenodd;stroke-width:0.410544"
     d="M 0.22238608,92.350849 C 0.34469842,68.622746 0.5087585,49.105313 0.58696407,48.978774 0.78031722,48.665922 71.404583,1.24552 73.528303,0.0025829 c 0.192195,-0.11248582 6.209925,3.4633565 13.37274,7.9463162 7.162815,4.4829599 13.112847,8.1508359 13.222307,8.1508359 0.10945,0 0.27106,-2.400135 0.35914,-5.333633 0.0938,-3.1238839 0.3072,-5.6083837 0.51507,-5.9967941 0.51968,-0.971027 1.51357,-1.1346258 6.73171,-1.1080638 4.22168,0.02149 4.78762,0.087697 5.53885,0.6479624 l 0.83673,0.6240272 0.17124,10.1907053 c 0.0942,5.604889 0.23265,10.244494 0.30771,10.310234 0.0751,0.06574 5.74456,3.665565 12.5989,7.999611 6.85433,4.334044 14.40102,9.16509 16.77042,10.735654 l 4.308,2.855576 0.18617,22.924709 c 0.1024,12.608593 0.20625,32.513857 0.23079,44.233917 l 0.0446,21.30921 H 89.333848 29.945005 v -32.6155 -32.615512 l 2.230929,-1.645512 C 35.129264,66.437981 48.219162,57.525675 62.9664,47.652523 l 11.932173,-7.988486 4.217425,2.093703 c 2.319585,1.151538 7.975687,4.088617 12.569115,6.526846 4.593435,2.438226 8.436017,4.433141 8.539077,4.433141 0.10305,0 0.18655,-6.750481 0.18554,-15.001069 l -10e-4,-15.001068 -10.8451,-6.817383 C 73.831835,6.0094928 74.021636,6.1188243 73.230989,6.4905157 72.863828,6.6631224 61.899456,13.984632 48.865719,22.760538 35.831982,31.536443 20.84458,41.624629 15.560381,45.178728 l -9.6076355,6.461999 -0.00472,41.926059 -0.00473,41.926064 H 2.9716483 0 Z M 142.87612,89.790379 V 49.626756 l -2.53864,-1.636283 c -7.66851,-4.942743 -25.21779,-15.889599 -25.47316,-15.889599 -0.18652,0 -0.30704,4.458367 -0.32233,11.923926 -0.0562,27.446287 -0.53187,54.930323 -0.99188,57.31178 -1.04272,5.39808 -2.87645,9.10424 -6.09373,12.31611 -4.43731,4.42984 -10.604022,6.08769 -19.507242,5.2443 -5.030655,-0.47654 -9.507083,-1.41405 -11.539283,-2.41669 -1.528607,-0.75419 -1.701311,-0.94059 -1.784166,-1.92573 -0.08966,-1.06611 0.729719,-5.30528 1.647074,-8.52136 0.614355,-2.15378 1.079872,-2.24463 5.79075,-1.13005 3.173775,0.75091 4.375635,0.88335 8.039625,0.8859 4.80867,0.003 5.780647,-0.29106 7.756695,-2.3496 2.340107,-2.43778 2.592707,-5.217927 2.483617,-27.335456 l -0.0858,-17.38585 -4.00028,-2.088758 C 84.739985,50.615537 75.54395,45.948014 75.21278,45.948014 c -0.317309,0 -16.499501,10.807689 -34.728562,23.194353 l -5.000356,3.397747 V 101.24706 129.954 h 53.696131 53.696127 z"
     id="path12" />
</svg>
