<?xml version="1.0" encoding="UTF-8" standalone="no"?>
<svg
   width="1539.3441"
   zoomAndPan="magnify"
   viewBox="0 0 1154.5081 157.33012"
   height="209.7735"
   preserveAspectRatio="xMidYMid"
   version="1.0"
   id="svg59"
   sodipodi:docname="Black logo .svg (1).svg"
   inkscape:export-filename="../Repositories/jaskiel-project/public/logos/jaskiel-header-image.svg"
   inkscape:export-xdpi="96"
   inkscape:export-ydpi="96"
   xmlns:inkscape="http://www.inkscape.org/namespaces/inkscape"
   xmlns:sodipodi="http://sodipodi.sourceforge.net/DTD/sodipodi-0.dtd"
   xmlns:xlink="http://www.w3.org/1999/xlink"
   xmlns="http://www.w3.org/2000/svg"
   xmlns:svg="http://www.w3.org/2000/svg">
  <sodipodi:namedview
     id="namedview59"
     pagecolor="#505050"
     bordercolor="#ffffff"
     borderopacity="1"
     inkscape:showpageshadow="0"
     inkscape:pageopacity="0"
     inkscape:pagecheckerboard="1"
     inkscape:deskcolor="#505050"
     inkscape:zoom="1.9243453"
     inkscape:cx="113.28528"
     inkscape:cy="138.22883"
     inkscape:window-width="1712"
     inkscape:window-height="969"
     inkscape:window-x="0"
     inkscape:window-y="39"
     inkscape:window-maximized="1"
     inkscape:current-layer="svg59">
    <sodipodi:guide
       position="0,157.33012"
       orientation="0,1539.344"
       id="guide69"
       inkscape:locked="false" />
    <sodipodi:guide
       position="1154.508,157.33012"
       orientation="209.7735,0"
       id="guide70"
       inkscape:locked="false" />
    <sodipodi:guide
       position="1154.508,0"
       orientation="0,-1539.344"
       id="guide71"
       inkscape:locked="false" />
    <sodipodi:guide
       position="0,0"
       orientation="-209.7735,0"
       id="guide72"
       inkscape:locked="false" />
    <inkscape:page
       x="0"
       y="0"
       width="1154.5081"
       height="157.33012"
       id="page2"
       margin="0"
       bleed="0" />
  </sodipodi:namedview>
  <defs
     id="defs1">
    <linearGradient
       id="linearGradient73"
       inkscape:collect="always">
      <stop
         style="stop-color:#ae8230;stop-opacity:1;"
         offset="0"
         id="stop73" />
      <stop
         style="stop-color:#fdf1aa;stop-opacity:1;"
         offset="0.51392961"
         id="stop76" />
      <stop
         style="stop-color:#ae8230;stop-opacity:1;"
         offset="1"
         id="stop75" />
    </linearGradient>
    <linearGradient
       inkscape:collect="always"
       xlink:href="#linearGradient73"
       id="linearGradient74"
       x1="0"
       y1="78.665062"
       x2="1154.5081"
       y2="78.665062"
       gradientUnits="userSpaceOnUse" />
  </defs>
  <path
     id="path1"
     style="fill:url(#linearGradient74);stroke-width:0.864962"
     inkscape:label="icon"
     d="M 84.70881,0 0.41559,56.786756 H 0 V 157.11218 H 6.9197 V 60.746656 L 85.05007,8.11239 115.39468,27.296973 V 61.167316 L 86.45225,45.863237 86.26473,46.216317 86.13296,46.020347 34.27411,80.951626 H 34.117 v 0.10643 l -0.58959,0.39701 0.58959,0.87509 v 74.782034 h 3.45985 v 0.21793 H 168.0374 v -0.21793 h 3.46154 V 55.095686 h -0.46964 l 0.36828,-0.58114 -39.3338,-24.865958 V 8.076918 c 0,-2.329091 -1.16623,-3.495328 -3.49532,-3.495328 h -9.65987 c -2.3426,0 -3.51391,1.166237 -3.51391,3.495328 v 11.03333 L 85.16664,0 84.94533,0.351391 Z m 47.35497,37.835317 32.51547,20.554659 V 150.41042 H 41.03669 V 84.739216 l 45.79567,-30.84806 28.48293,15.0625 0.0794,-0.15035 v 38.835434 c 0,3.99144 -0.3863,7.08131 -1.15215,9.27976 -0.77036,2.18943 -1.96475,3.70818 -3.58655,4.55963 -1.6218,0.85595 -3.68905,1.27886 -6.19833,1.27886 -1.25239,0 -2.90236,-0.10812 -4.95664,-0.32436 -2.04527,-0.22525 -4.60411,-0.82949 -7.67654,-1.80257 -2.51379,-0.91001 -3.99481,-0.14303 -4.44982,2.30769 l -1.87521,8.5415 c -0.51807,2.22548 0.30747,3.67552 2.46987,4.36029 4.21669,1.19833 7.78804,1.95517 10.7208,2.27052 2.94178,0.31084 5.6414,0.46796 8.09212,0.46796 7.96486,0 14.16713,-2.50479 18.61357,-7.51436 4.44194,-5.01858 6.66798,-12.91135 6.66798,-23.67833 z M 1096.229,141.78181 h -5.075 c -1.2269,0 -1.8404,-0.61347 -1.8404,-1.84039 V 73.575861 c 0,-1.185082 0.2232,-2.035578 0.6693,-2.565387 0.474,-0.51585 1.0735,-0.683158 1.7846,-0.501922 0.6971,0.153498 1.3942,0.711072 2.0635,1.673078 l 28.0519,38.53664 28.1078,-38.53664 c 0.6971,-0.962006 1.3942,-1.519698 2.0635,-1.673078 0.6971,-0.181359 1.2827,-0.01555 1.7288,0.501922 0.4741,0.529809 0.725,1.380305 0.725,2.565387 v 66.365559 c 0,1.22692 -0.6134,1.84039 -1.8404,1.84039 h -5.075 c -1.2269,0 -1.8404,-0.61347 -1.8404,-1.84039 V 92.53744 l -22.5308,30.67316 c -0.4183,0.52979 -0.8644,0.78078 -1.3385,0.78078 -0.488,0 -0.9202,-0.25099 -1.2827,-0.78078 l -22.475,-30.67316 v 47.40398 c 0,1.22692 -0.6414,1.84039 -1.8962,1.84039 z m 0,0 m -55.6133,-69.60018 28.777,67.48094 c 0.2928,0.64135 0.3067,1.15721 0.056,1.56154 -0.2649,0.37643 -0.7529,0.5577 -1.45,0.5577 h -5.7442 c -0.488,0 -0.9202,-0.11141 -1.2827,-0.33463 -0.3765,-0.22312 -0.6553,-0.57164 -0.8366,-1.0596 l -5.075,-12.43658 h -32.2904 l -5.075,12.43658 c -0.3764,0.93411 -1.1014,1.39423 -2.175,1.39423 h -5.6885 c -0.711,0 -1.199,-0.18135 -1.45,-0.5577 -0.2649,-0.40433 -0.251,-0.92019 0.056,-1.56154 l 28.7769,-67.48094 c 0.4043,-1.031734 0.962,-1.56154 1.6731,-1.56154 0.7389,0 1.3106,0.529806 1.7288,1.56154 z m -1.7288,16.34042 -12.9384,31.67699 h 25.9326 z m 0,0 M 296.624,141.78181 h -5.1308 c -1.22693,0 -1.84039,-0.61347 -1.84039,-1.84039 V 74.022014 c 0,-1.226923 0.61346,-1.840384 1.84039,-1.840384 h 5.1308 c 1.2548,0 1.89617,0.613461 1.89617,1.840384 V 111.33173 H 332.4837 V 74.022014 c 0,-1.226923 0.61344,-1.840384 1.84039,-1.840384 h 5.18652 c 1.22692,0 1.84042,0.613461 1.84042,1.840384 v 65.919406 c 0,1.22692 -0.6135,1.84039 -1.84042,1.84039 h -5.18652 c -1.22695,0 -1.84039,-0.61347 -1.84039,-1.84039 v -20.30006 h -33.96353 v 20.30006 c 0,1.22692 -0.64137,1.84039 -1.89617,1.84039 z m 0,0 m 693.39637,0 h -33.68471 c -1.22692,0 -1.84039,-0.61347 -1.84039,-1.84039 V 74.022014 c 0,-1.226923 0.61347,-1.840384 1.84039,-1.840384 h 33.68471 c 1.2269,0 1.8404,0.613461 1.8404,1.840384 v 4.57311 c 0,1.268734 -0.6135,1.896155 -1.8404,1.896155 h -26.6578 v 30.951991 h 23.0328 c 1.2269,0 1.8404,0.61346 1.8404,1.84039 v 4.40576 c 0,1.22693 -0.6135,1.84039 -1.8404,1.84039 h -23.0328 v 13.94234 h 26.6578 c 1.2269,0 1.8404,0.64135 1.8404,1.89616 v 4.57311 c 0,1.22692 -0.6135,1.84039 -1.8404,1.84039 z m 0,0 m -205.88032,0 h -33.68469 c -1.22692,0 -1.84039,-0.61347 -1.84039,-1.84039 V 74.022014 c 0,-1.226923 0.61347,-1.840384 1.84039,-1.840384 h 33.68469 c 1.22691,0 1.84038,0.613461 1.84038,1.840384 v 4.57311 c 0,1.268734 -0.61347,1.896155 -1.84038,1.896155 h -26.65773 v 30.951991 h 23.03272 c 1.22693,0 1.84039,0.61346 1.84039,1.84039 v 4.40576 c 0,1.22693 -0.61346,1.84039 -1.84039,1.84039 h -23.03272 v 13.94234 h 26.65773 c 1.22691,0 1.84038,0.64135 1.84038,1.89616 v 4.57311 c 0,1.22692 -0.61347,1.84039 -1.84038,1.84039 z m 0,0 m 131.40464,0 h -5.18655 c -1.22692,0 -1.84039,-0.61347 -1.84039,-1.84039 V 80.491279 h -15.78271 c -1.22694,0 -1.84043,-0.627421 -1.84043,-1.896155 v -4.57311 c 0,-1.226923 0.61349,-1.840384 1.84043,-1.840384 h 40.43276 c 1.25481,0 1.89615,0.613461 1.89615,1.840384 v 4.57311 c 0,1.268734 -0.64134,1.896155 -1.89615,1.896155 h -15.72696 v 59.450141 c 0,1.22692 -0.64135,1.84039 -1.89615,1.84039 z m 0,0 m -193.97716,0 h -5.1308 c -1.22692,0 -1.84038,-0.61347 -1.84038,-1.84039 V 74.022014 c 0,-1.226923 0.61346,-1.840384 1.84038,-1.840384 h 5.1308 c 1.25479,0 1.89617,0.613461 1.89617,1.840384 v 65.919406 c 0,1.22692 -0.64138,1.84039 -1.89617,1.84039 z m 0,0 m -118.28406,1.45 c -2.20289,0 -4.39183,-0.1535 -6.58077,-0.44616 -2.20291,-0.3067 -4.54522,-0.83653 -7.02695,-1.61731 -2.45386,-0.78076 -5.13078,-1.81249 -8.03077,-3.1231 -1.1154,-0.58559 -1.38031,-1.45001 -0.78079,-2.56539 l 1.9519,-4.46155 c 0.5577,-1.07356 1.40819,-1.31057 2.56539,-0.72501 3.59712,1.93801 6.81784,3.23463 9.64815,3.90387 2.81633,0.66923 5.36777,1.00384 7.64037,1.00384 3.97356,0 7.11059,-0.83653 9.42504,-2.50961 2.34231,-1.70097 3.51344,-4.09904 3.51344,-7.19423 0,-1.78463 -0.44616,-3.37408 -1.33846,-4.7962 -0.86443,-1.40815 -2.04951,-2.7048 -3.56924,-3.90383 -1.49185,-1.22693 -3.23462,-2.41204 -5.24232,-3.56924 -1.97982,-1.14327 -4.07115,-2.34231 -6.30192,-3.56923 -2.20288,-1.22693 -4.3361,-2.50965 -6.41349,-3.84811 -2.04954,-1.33847 -3.88989,-2.81635 -5.52116,-4.46154 -1.64518,-1.63127 -2.95579,-3.52742 -3.95964,-5.68847 -0.97597,-2.14714 -1.45,-4.62887 -1.45,-7.41734 0,-3.03942 0.52983,-5.660576 1.61734,-7.863462 1.07354,-2.188958 2.56538,-3.987531 4.46154,-5.409646 1.92405,-1.450002 4.09903,-2.509617 6.525,-3.178849 2.41203,-0.697114 4.99137,-1.059615 7.75196,-1.059615 2.74666,0 5.68849,0.362501 8.81157,1.059615 3.12308,0.711074 6.21824,1.728847 9.31347,3.067309 1.11538,0.557693 1.40815,1.394232 0.89229,2.509618 l -1.84039,4.350031 c -0.2649,0.487966 -0.59948,0.822581 -1.00383,1.003846 -0.41828,0.195286 -0.8923,0.153514 -1.45,-0.111409 -2.49569,-1.14327 -5.00531,-2.035578 -7.52888,-2.676924 -2.5375,-0.669231 -4.94954,-1.003847 -7.25,-1.003847 -2.04954,0 -3.94569,0.3067 -5.6885,0.892309 -1.71492,0.599503 -3.0952,1.533654 -4.12692,2.788462 -1.04569,1.268735 -1.56153,2.927885 -1.56153,4.963462 0,1.82646 0.39038,3.45769 1.17114,4.9077 0.78081,1.42214 1.84039,2.71876 3.17884,3.90387 1.36635,1.19904 2.92789,2.31443 4.68462,3.34616 1.74281,1.04569 3.58324,2.1053 5.5212,3.17884 1.7846,1.00385 3.59711,2.04954 5.46542,3.12308 1.85431,1.04569 3.59712,2.20289 5.2423,3.45773 1.63128,1.22692 3.08128,2.60719 4.35,4.12692 1.29665,1.49185 2.31443,3.17884 3.06732,5.075 0.73891,1.86827 1.11538,3.9596 1.11538,6.30195 0,3.05336 -0.55769,5.71635 -1.67308,7.975 -1.11538,2.27262 -2.66296,4.16878 -4.62886,5.6885 -1.9798,1.53366 -4.23846,2.66297 -6.80383,3.40192 -2.53754,0.78078 -5.24235,1.17117 -8.14235,1.17117 z m 0,0 m -68.10568,-71.05018 28.77703,67.48094 c 0.29278,0.64135 0.30671,1.15721 0.0557,1.56154 -0.26493,0.37643 -0.75283,0.5577 -1.44994,0.5577 h -5.74424 c -0.48795,0 -0.92022,-0.11141 -1.28269,-0.33463 -0.37646,-0.22312 -0.65526,-0.57164 -0.83653,-1.0596 L 549.62209,127.951 h -32.29052 l -5.07503,12.43658 c -0.37645,0.93411 -1.10142,1.39423 -2.175,1.39423 h -5.68846 c -0.71108,0 -1.19908,-0.18135 -1.45001,-0.5577 -0.26492,-0.40433 -0.251,-0.92019 0.0556,-1.56154 l 28.777,-67.48094 c 0.40432,-1.031734 0.962,-1.56154 1.67308,-1.56154 0.73893,0 1.31058,0.529806 1.72886,1.56154 z m -1.72886,16.34042 -12.93851,31.67699 h 25.93283 z m 0,0 m -63.55589,54.70976 c -1.31057,0 -2.73268,-0.0976 -4.29422,-0.27886 -1.56154,-0.15349 -3.4577,-0.54375 -5.68846,-1.17114 -1.15724,-0.36251 -1.60338,-1.12934 -1.33847,-2.28655 l 1.00386,-4.5731 c 0.25099,-1.29662 1.03172,-1.70096 2.34233,-1.22694 1.63123,0.52982 2.9836,0.86444 4.07116,1.00387 1.11538,0.11141 2.00768,0.16741 2.67692,0.16741 1.29662,0 2.37018,-0.22313 3.23462,-0.66922 0.8923,-0.47404 1.53369,-1.29662 1.95196,-2.45386 0.4043,-1.14326 0.61339,-2.78845 0.61339,-4.90768 V 74.022138 c 0,-1.226923 0.61349,-1.840385 1.84045,-1.840385 h 5.13074 c 1.22695,0 1.84039,0.613462 1.84039,1.840385 v 52.646292 c 0,5.73032 -1.19901,9.92692 -3.5692,12.60388 -2.34235,2.63509 -5.61878,3.95963 -9.81543,3.95963 z m 0,0 m -219.19078,-1.45 h -5.18657 c -1.22693,0 -1.84035,-0.61347 -1.84035,-1.84039 V 80.491279 h -15.78276 c -1.22692,0 -1.84035,-0.627421 -1.84035,-1.896155 v -4.57311 c 0,-1.226923 0.61343,-1.840384 1.84035,-1.840384 h 40.4328 c 1.2548,0 1.89614,0.613461 1.89614,1.840384 v 4.57311 c 0,1.268734 -0.64134,1.896155 -1.89614,1.896155 h -15.72696 v 59.450141 c 0,1.22692 -0.64135,1.84039 -1.89616,1.84039 z m 0,0 m 402.46808,0 h -4.90769 c -1.22695,0 -1.84043,-0.61347 -1.84043,-1.84039 V 74.022014 c 0,-1.226923 0.61348,-1.840384 1.84043,-1.840384 h 4.90769 c 1.25481,0 1.89615,0.613461 1.89615,1.840384 v 28.275066 l 27.60583,-29.167374 c 0.33444,-0.404311 0.6832,-0.669231 1.05962,-0.780769 0.40433,-0.11141 0.83653,-0.167123 1.28269,-0.167123 h 6.52505 c 0.78076,0 1.2548,0.250994 1.44999,0.725001 0.18136,0.446154 0.0147,0.97596 -0.50196,1.561539 l -29.89238,31.342376 31.34238,33.68469 c 0.51589,0.59954 0.6832,1.14327 0.50196,1.61731 -0.19529,0.44616 -0.66923,0.66922 -1.45,0.66922 h -7.30579 c -0.488,0 -0.9202,-0.0556 -1.28272,-0.16742 -0.37641,-0.13959 -0.71102,-0.40432 -1.00383,-0.78077 l -28.33084,-30.72892 v 29.83662 c 0,1.22691 -0.64134,1.84037 -1.89615,1.84037 z m 0,0 m 184.18632,0 h -27.60584 c -1.22692,0 -1.84039,-0.61347 -1.84039,-1.84039 V 74.022014 c 0,-1.226923 0.61347,-1.840384 1.84039,-1.840384 h 5.13078 c 1.2548,0 1.89615,0.613461 1.89615,1.840384 v 59.450136 h 20.57891 c 1.22694,0 1.84038,0.64135 1.84038,1.89616 v 4.57311 c 0,1.22692 -0.61344,1.84039 -1.84038,1.84039 z m 0,0 m -435.26199,0 h -33.6847 c -1.22692,0 -1.84037,-0.61347 -1.84037,-1.84039 V 74.022014 c 0,-1.226923 0.61345,-1.840384 1.84037,-1.840384 h 33.6847 c 1.22692,0 1.84039,0.613461 1.84039,1.840384 v 4.57311 c 0,1.268734 -0.61347,1.896155 -1.84039,1.896155 h -26.65776 v 30.951991 h 23.03273 c 1.22695,0 1.84041,0.61346 1.84041,1.84039 v 4.40576 c 0,1.22693 -0.61346,1.84039 -1.84041,1.84039 h -23.03273 v 13.94234 h 26.65776 c 1.22692,0 1.84039,0.64135 1.84039,1.89616 v 4.57311 c 0,1.22692 -0.61347,1.84039 -1.84039,1.84039 z m 0,0" />
</svg>
