<?xml version="1.0" encoding="UTF-8" standalone="no"?>
<!-- Created with Inkscape (http://www.inkscape.org/) -->

<svg
   width="1405.2469mm"
   height="1340.6816mm"
   viewBox="0 0 1405.247 1340.6816"
   version="1.1"
   id="svg1"
   sodipodi:docname="jaskiek-gold-logo.svg"
   inkscape:export-filename="jaskiek-gold-favicon.png"
   inkscape:export-xdpi="96.759911"
   inkscape:export-ydpi="96.759911"
   xmlns:inkscape="http://www.inkscape.org/namespaces/inkscape"
   xmlns:sodipodi="http://sodipodi.sourceforge.net/DTD/sodipodi-0.dtd"
   xmlns:xlink="http://www.w3.org/1999/xlink"
   xmlns="http://www.w3.org/2000/svg"
   xmlns:svg="http://www.w3.org/2000/svg">
  <sodipodi:namedview
     id="namedview1"
     pagecolor="#000000"
     bordercolor="#ffffff"
     borderopacity="1"
     inkscape:showpageshadow="0"
     inkscape:pageopacity="0"
     inkscape:pagecheckerboard="1"
     inkscape:deskcolor="#505050"
     inkscape:document-units="mm"
     showguides="true">
    <inkscape:page
       x="0"
       y="0"
       width="1405.2471"
       height="1340.6816"
       id="page2"
       margin="0"
       bleed="0" />
  </sodipodi:namedview>
  <defs
     id="defs1">
    <linearGradient
       id="linearGradient15"
       inkscape:collect="always">
      <stop
         style="stop-color:#ae8331;stop-opacity:1;"
         offset="0"
         id="stop15" />
      <stop
         style="stop-color:#fbefae;stop-opacity:1;"
         offset="0.50048637"
         id="stop19" />
      <stop
         style="stop-color:#ae8331;stop-opacity:1;"
         offset="1"
         id="stop18" />
    </linearGradient>
    <linearGradient
       inkscape:collect="always"
       xlink:href="#linearGradient15"
       id="linearGradient16"
       x1="0"
       y1="500"
       x2="1000"
       y2="500"
       gradientUnits="userSpaceOnUse"
       gradientTransform="translate(200.91416,160.39831)" />
  </defs>
  <rect
     style="display:inline;fill:#000000;fill-rule:evenodd;stroke-width:0.352999"
     id="rect1"
     width="1405.2469"
     height="1340.6816"
     x="-1.8990442"
     y="-9.4949474" />
  <path
     d="m 695.15944,204.63954 c -2.42932,0.63528 -66.48116,43.28081 -183.99238,122.50208 -46.77048,31.53076 -135.04799,90.91797 -196.17252,131.97179 -61.12455,41.05383 -111.55883,75.69148 -112.07585,76.97256 -0.51701,1.28106 -1.26779,132.52633 -1.66863,291.65559 l -0.3359,133.37689 V 1117.067 h 19.7342 20.12693 l 0.0506,-281.35332 0.0506,-281.35389 113.55017,-76.4005 c 62.45244,-42.02036 164.82148,-110.8691 227.4869,-152.99738 l 113.93723,-76.59687 3.98943,2.03657 c 3.84209,1.96139 94.64998,58.57778 148.15426,92.37058 l 25.90953,16.36438 0.34055,100.08226 c 0.32326,94.98396 0.22215,100.03739 -1.99265,99.19808 -1.28352,-0.48641 -34.02342,-17.54225 -72.75525,-37.90156 -76.30927,-40.11184 -91.71326,-47.87098 -95.03399,-47.87098 -1.19062,0 -29.02543,18.0123 -61.85514,40.02701 -65.6106,43.99664 -219.02141,147.28649 -233.75059,157.38161 l -9.30124,6.37429 0.3359,218.65897 c 0.18465,120.26245 0.61395,219.40635 0.95446,220.31985 0.49339,1.3237 80.69157,1.658 394.95471,1.6464 216.88453,-0.01 396.67513,-0.401 399.53473,-0.8733 l 5.1992,-0.8589 -0.9297,-295.44648 c -0.5113,-162.49578 -1.2591,-296.30584 -1.6619,-297.35549 -1.1412,-2.97403 -58.8193,-40.23664 -207.11289,-133.80476 l -19.9306,-12.57546 -1.0118,-65.68333 c -0.5565,-36.12592 -1.3036,-66.98305 -1.6603,-68.571 -0.3568,-1.58795 -2.197,-4.72659 -4.0892,-6.97528 l -3.4401,-4.08864 h -38.1537 -38.1538 l -4.14342,4.31808 -4.1429,4.3186 -0.95498,37.5357 c -0.5253,20.64478 -1.09543,37.5362 -1.26659,37.5362 -0.17116,0 -27.14284,-16.93678 -59.93691,-37.63697 -87.33215,-55.12566 -116.48038,-72.85499 -118.78647,-72.25193 z m 276.38267,217.51385 c 0.6795,0 8.6137,4.73313 28.81419,17.32246 20.2005,12.58933 52.667,33.03486 102.4103,64.45911 2e-4,1.2e-4 3e-4,-1.1e-4 5e-4,0 l 58.7876,37.13779 h 6e-4 l 0.01,269.39544 0.01,269.39541 h -6e-4 -360.7433 -360.74388 l 0.0703,-192.99485 0.0703,-192.99448 132.33973,-89.0235 c 72.78698,-48.96284 133.13446,-89.2145 134.10551,-89.44829 0.97105,-0.23379 31.22362,15.12464 67.22794,34.13022 36.00431,19.00555 73.2358,38.63052 82.73603,43.61077 l 17.27285,9.05475 v 128.88205 c 0,100.11045 -0.38523,130.91739 -1.72548,137.9983 -5.16075,27.26618 -18.36873,42.40158 -41.19076,47.20178 -10.09854,2.124 -41.73045,1.8358 -55.13824,-0.5023 -6.25472,-1.0907 -19.55486,-4.0803 -29.55582,-6.6435 -10.00096,-2.5632 -19.65652,-4.6602 -21.45709,-4.6602 -8.47383,0 -12.61328,9.7882 -20.51037,48.4978 -4.73861,23.2276 -4.80068,27.1961 -0.50178,32.305 4.0827,4.852 9.43311,7.0442 29.50879,12.0902 28.66239,7.20425 56.94622,10.75265 85.42941,10.71815 30.96533,-0.037 51.16257,-3.7726 71.21997,-13.17175 41.0253,-19.2251 64.239,-52.9968 75.1256,-109.29407 2.783,-14.39148 2.9462,-19.58201 3.8649,-122.65298 0.5277,-59.19391 1.0279,-160.09216 1.1111,-224.21887 0.098,-75.41872 0.6127,-116.59444 1.4578,-116.59444 z"
     style="baseline-shift:baseline;display:inline;overflow:visible;vector-effect:none;fill:url(#linearGradient16);fill-rule:evenodd;enable-background:accumulate;stop-color:#000000;stop-opacity:1"
     id="path1"
     sodipodi:nodetypes="ssssscccccccscsscssssscccssscssscssccccccsssscsscccccccccccssscsssssssssssssscc" />
</svg>
